HIERARCHY
ROOT pelvis
{
  OFFSET 0 100 0
  CHANNELS 6 Xposition Yposition Zposition Zrotation Xrotation Yrotation
  JOINT pelvis_right_femur
  {
    OFFSET -10.78128 -3.44521 -0.5502486
    CHANNELS 3 Zrotation Xrotation Yrotation
    JOINT right_femur_tibia
    {
      OFFSET -0.8047443 -44.0398 -0.1307829
      CHANNELS 3 Zrotation Xrotation Yrotation
      JOINT right_tibia_foot
      {
        OFFSET 3.006224 -47.83518 -5
        CHANNELS 3 Zrotation Xrotation Yrotation
        End Site
        {
          OFFSET 0 -5 15
        }
      }
    }
  }
  JOINT pelvis_left_femur
  {
    OFFSET 10.78128 -3.44521 -0.5502486
    CHANNELS 3 Zrotation Xrotation Yrotation
    JOINT left_femur_tibia
    {
      OFFSET 0.8047443 -44.0398 -0.1307829
      CHANNELS 3 Zrotation Xrotation Yrotation
      JOINT left_tibia_foot
      {
        OFFSET -4.370144 -48.10324 -4.275266
        CHANNELS 3 Zrotation Xrotation Yrotation
        End Site
        {
          OFFSET 0 -5 15
        }
      }
    }
  }
  JOINT pelvis_spine1
  {
    OFFSET 0 6.468898 -3.129235
    CHANNELS 3 Zrotation Xrotation Yrotation
    JOINT spine1
    {
      OFFSET 0 23.15396 4.99043
      CHANNELS 3 Zrotation Xrotation Yrotation
      JOINT spine2
      {
        OFFSET 0 20.79997 -5.064912
        CHANNELS 3 Zrotation Xrotation Yrotation
        JOINT neck
        {
          OFFSET 0 14.38658 9.616178
          CHANNELS 3 Zrotation Xrotation Yrotation
          End Site
          {
            OFFSET 0 20 0
          }
        }
      }
      JOINT right_manubrium
      {
        OFFSET -5.722621 16.35077 3.967754
        CHANNELS 3 Zrotation Xrotation Yrotation
        JOINT right_clavicle
        {
          OFFSET -13.16364 1.694482 -4.693211
          CHANNELS 3 Zrotation Xrotation Yrotation
          JOINT right_humerus
          {
            OFFSET -28.5034 -0.3100689 -2.792744
            CHANNELS 3 Zrotation Xrotation Yrotation
            JOINT right_radius
            {
              OFFSET -25.15693 0.02248979 -1.271978
              CHANNELS 3 Zrotation Xrotation Yrotation
              End Site
              {
                OFFSET -15 0 0
              }
            }
          }
        }
      }
      JOINT left_manubrium
      {
        OFFSET 5.722621 16.35077 3.967754
        CHANNELS 3 Zrotation Xrotation Yrotation
        JOINT left_clavicle
        {
          OFFSET 13.16364 1.694482 -4.693211
          CHANNELS 3 Zrotation Xrotation Yrotation
          JOINT left_humerus
          {
            OFFSET 29.39168 -1.063119 -2.237045
            CHANNELS 3 Zrotation Xrotation Yrotation
            JOINT left_radius
            {
              OFFSET 24.59957 -0.9528479 0.9047498
              CHANNELS 3 Zrotation Xrotation Yrotation
              End Site
              {
                OFFSET 15 -0 -0
              }
            }
          }
        }
      }
    }
  }
}
MOTION
Frames: 15
Frame Time: 0.0416666666667
0 103.5113 0 1.920903 -2.301932 0.05348627 1.462854 -12.92491 7.355034 -0 37.80509 -0 -5.466354 -17.75854 -3.354001 -7.543937 11.66425 -23.88239 -0 4.553636 -0 6.88504 -16.54447 26.02799 -2.507543 -3.845605 5.101933 3.200324 9.626672 -8.405741 1.722851 20.86536 6.24453 2.78735 -26.57394 9.868154 6.22146 -19.92285 11.31263 85.91211 34.63166 -20.53007 -0 0 16.96379 -4.642427 7.566749 2.547546 6.546417 -20.64357 -0.4751659 -95.63213 26.237 24.11958 0 0 -14.73452 9.842134 17.06288 3.059147
0.2344475 103.5087 1.326326 1.478379 -1.501333 -0.02084675 2.397794 -14.48205 8.501463 -0 37.95739 -0 -5.179513 -17.86532 -3.667343 -7.330366 11.38474 -24.08108 -0 4.963212 -0 6.606096 -17.31142 26.50092 -2.491441 -3.815817 5.112066 3.20009 9.636118 -8.416511 1.715996 20.82617 6.27575 2.812858 -26.59815 9.875173 6.216537 -19.93369 11.32008 85.95492 34.70708 -20.57461 -0 0 16.92789 -4.622164 7.587492 2.549435 6.550255 -20.66668 -0.5049684 -95.56864 26.23578 24.09593 0 0 -14.94191 9.867913 16.95021 3.087368
0.4687836 103.3222 3.062487 0.7563029 -0.4255917 -0.01157133 3.565647 -19.13779 7.717951 -0 33.52287 -0 -5.772728 -14.55613 -3.283208 -6.812223 11.68434 -22.56998 -0 5.054416 -0 5.581152 -19.40475 25.11141 -1.706939 -2.963322 5.013866 3.225639 9.733882 -8.692823 1.342392 20.15827 6.774512 3.287581 -26.58432 9.422198 6.121563 -19.23885 11.50607 86.99322 35.23908 -21.96267 -0 0 15.25763 -5.345475 8.537243 3.127773 6.582843 -21.37069 -0.9157341 -94.22623 26.19681 23.07001 0 0 -18.24953 8.80412 15.09639 4.745133
0.6989034 103.071 4.960639 0.2883623 0.4919557 0.0624899 4.520887 -21.94736 8.023897 -0 31.48585 -0 -5.773307 -13.34931 -3.263393 -6.547667 11.70315 -21.99219 -0 5.234053 -0 5.241085 -20.49937 24.66929 -1.464087 -2.806001 5.088794 3.189263 9.71439 -8.839108 1.246121 19.91902 6.914749 3.465218 -26.58894 9.268 6.075459 -19.22607 11.52835 87.45102 35.4535 -22.69073 -0 0 15.07541 -5.215958 8.615339 3.029079 6.610165 -21.63878 -1.12379 -94.17654 26.98432 23.28773 0 0 -19.74252 7.849321 14.60099 6.232717
0.932807 102.731 7.12188 -0.2000975 1.643541 0.2207279 5.594881 -25.39756 8.249585 -0 28.5119 -0 -5.73431 -11.82752 -3.137019 -6.307949 11.82124 -21.19251 -0 5.439106 -0 5.08348 -21.65741 24.02072 -1.389393 -2.860871 5.207058 3.102389 9.622037 -8.895443 1.248758 19.88016 6.934345 3.548157 -26.57492 9.218461 6.04476 -19.39945 11.47315 87.65883 35.53028 -23.10907 -0 0 15.38602 -4.781118 8.352293 2.693416 6.629587 -21.70819 -1.244278 -94.6816 28.14476 23.9939 0 0 -20.44562 6.833215 14.68769 7.735878
1.173728 102.2839 9.593497 -0.6234934 2.697539 0.4736684 6.518823 -28.57599 8.333699 -0 25.44157 -0 -5.703628 -10.27603 -2.95238 -6.108717 12.04977 -20.36725 -0 5.770185 -0 4.901181 -22.61983 23.22663 -1.315234 -2.886014 5.288485 2.983995 9.527216 -8.912742 1.256102 19.87838 6.967923 3.646905 -26.49482 9.166502 6.019115 -19.50818 11.40908 87.84421 35.59468 -23.45327 -0 0 15.62706 -4.489265 8.153513 2.428602 6.659424 -21.76106 -1.370573 -95.15073 29.23389 24.58754 0 0 -21.06145 5.822508 14.80224 9.189458
1.425072 101.7282 12.48355 -1.066944 3.781907 0.8453937 7.429968 -31.85863 8.307216 -0 21.96288 -0 -5.687729 -8.443458 -2.697919 -5.896804 12.43998 -19.40922 -0 6.44274 -0 4.523375 -23.48567 22.11826 -1.222303 -2.856592 5.324471 2.852281 9.450145 -8.909901 1.251778 19.8789 7.029803 3.766784 -26.35871 9.098861 6.002528 -19.52611 11.35479 88.03992 35.67439 -23.76431 -0 0 15.72355 -4.402472 8.095181 2.280664 6.698281 -21.82983 -1.50734 -95.46681 30.13529 24.96706 0 0 -21.68037 4.882593 14.85465 10.51462
1.686889 101.0615 15.93129 -1.499396 4.720856 1.350278 8.154089 -34.87261 7.999326 -0 18.2747 -0 -5.714943 -6.268281 -2.375436 -5.657649 13.07953 -18.27053 -0 7.723991 -0 3.717314 -24.05899 20.52546 -1.103918 -2.766952 5.31187 2.729021 9.408704 -8.904813 1.224497 19.86035 7.119051 3.899205 -26.18087 9.005963 5.999311 -19.44388 11.32613 88.25956 35.77574 -24.06487 -0 0 15.64014 -4.558104 8.224665 2.278804 6.738952 -21.93315 -1.648485 -95.55213 30.75036 25.07105 0 0 -22.31636 4.078509 14.80045 11.62216
1.95608 100.3293 20.10864 -1.932973 5.398937 1.99204 8.640426 -37.17475 7.43711 -0 14.78324 -0 -5.757495 -3.863261 -2.061653 -5.341915 13.99269 -16.9592 -0 10.14011 -0 2.140085 -24.03725 18.28096 -0.9475483 -2.604929 5.246789 2.629052 9.422099 -8.915677 1.160614 19.80036 7.23848 4.042011 -25.96006 8.869665 6.012441 -19.24619 11.33877 88.53046 35.90727 -24.39346 -0 0 15.33315 -5.020778 8.603441 2.462848 6.774527 -22.09699 -1.79799 -95.32545 31.0021 24.835 0 0 -23.01816 3.431576 14.58609 12.48055
2.219682 99.64609 25.16886 -2.315717 5.513487 2.719097 8.74676 -37.71342 6.65446 -0 12.39532 -0 -5.791114 -1.708698 -1.919956 -4.888648 15.09192 -15.52925 -0 14.41727 -0 -0.5494613 -22.79757 15.33414 -0.7422905 -2.352395 5.120314 2.550211 9.507111 -8.951906 1.047657 19.69378 7.392934 4.198728 -25.65703 8.6627 6.042177 -18.90807 11.40301 88.88768 36.07063 -24.78818 -0 0 14.75641 -5.91245 9.310288 2.893726 6.795139 -22.34461 -1.97467 -94.7232 30.86398 24.19892 0 0 -23.84491 2.875661 14.16886 13.16205
2.445223 99.2329 31.1022 -2.571401 4.711509 3.376364 8.501315 -35.09332 5.916473 -0 12.42947 -0 -5.962402 -0.9110768 -2.164192 -4.22245 15.90321 -14.15636 -0 21.2569 -0 -4.206728 -19.55878 12.17184 -0.5036432 -2.001042 4.926718 2.462101 9.670417 -8.997924 0.8857686 19.58133 7.580991 4.368301 -25.18163 8.363937 6.082341 -18.42038 11.5144 89.34397 36.26072 -25.23548 -0 0 13.91401 -7.409111 10.41411 3.648086 6.778528 -22.66668 -2.211429 -93.7554 30.41129 23.16259 0 0 -24.80169 2.233588 13.56107 13.8733
2.576068 99.33727 37.54927 -2.664766 2.844299 3.691713 8.212745 -28.99579 5.442611 -0 15.31858 -0 -6.907344 -2.519375 -2.748613 -3.362642 15.47808 -12.94516 -0 30.46648 -0 -7.439316 -14.34126 10.0659 -0.3231488 -1.605016 4.693763 2.314438 9.8726 -8.985923 0.7128819 19.59577 7.767483 4.508267 -24.45879 8.016174 6.114964 -17.87179 11.63353 89.7826 36.46133 -25.54151 -0 0 13.00617 -9.543429 11.81383 4.725436 6.670975 -22.93842 -2.510208 -92.67541 29.92578 21.97786 0 0 -25.62156 1.285443 12.96476 14.87625
2.601794 100.0531 43.9873 -2.699185 0.5543463 3.449572 8.314777 -22.1684 5.164376 -0 18.57824 -0 -8.623082 -5.383866 -3.237639 -2.635107 13.03663 -11.55499 -0 40.63058 -0 -8.41647 -9.099246 9.896339 -0.3532906 -1.307382 4.504109 2.145429 9.986517 -8.831264 0.5883146 19.90995 7.842994 4.493282 -23.67384 7.746621 6.111621 -17.48507 11.69666 89.84174 36.58724 -25.28619 -0 0 12.43593 -11.71659 12.94952 5.866307 6.382326 -22.88856 -2.721468 -92.05602 29.78284 21.26864 0 0 -25.56685 0.1168081 12.7793 16.02227
2.656086 101.3252 50.26679 -2.503507 -1.118089 2.762554 8.394169 -17.06202 5.246093 -0 18.90696 -0 -8.612602 -6.868369 -3.431573 -2.541099 8.53962 -9.795538 -0 50.71644 -0 -7.751155 -5.958588 10.8168 -0.6616195 -1.228689 4.456588 2.147292 9.910163 -8.565488 0.4986368 20.51028 7.637188 4.187478 -23.24905 7.559119 6.034376 -17.43526 11.70327 89.15759 36.45138 -24.17575 -0 0 12.42054 -12.90022 13.03415 6.701344 5.856447 -22.3743 -2.586301 -92.2401 29.89571 21.48117 0 0 -24.01344 -0.6609649 13.09811 16.42885
2.827658 102.9209 56.37244 -1.60793 -2.401284 1.986035 7.395591 -11.69677 5.259848 -0 16.80601 -0 -6.827763 -7.317329 -3.306906 -2.967823 2.095442 -8.652819 -0 59.19923 -0 -7.418891 -5.055499 11.84402 -1.153093 -1.293181 4.589118 2.296121 9.720651 -8.216127 0.3914014 21.19531 7.184637 3.67527 -23.1309 7.322687 5.853678 -17.65441 11.70909 87.83654 36.24006 -22.26458 -0 0 12.77664 -13.33137 12.30064 7.431363 5.185981 -21.6042 -2.126495 -92.72809 29.74381 22.20079 0 0 -21.5247 -0.66991 13.51328 15.66119
